<svg width="118" height="32" viewBox="0 0 118 32" fill="none" xmlns="http://www.w3.org/2000/svg">
<path d="M22.1349 24.9387V19.9231C22.6407 20.6185 23.6944 21.1875 25.1274 21.1875C28.0567 21.1875 30.0166 18.8694 30.0166 15.7293C30.0166 12.6525 28.2674 10.3344 25.2328 10.3344C23.6733 10.3344 22.5142 11.0298 22.0506 11.8306V10.5662H19.332V24.9387H22.1349ZM27.2559 15.7504C27.2559 17.6049 26.1179 18.6797 24.6848 18.6797C23.2518 18.6797 22.0927 17.5839 22.0927 15.7504C22.0927 13.917 23.2518 12.8422 24.6848 12.8422C26.1179 12.8422 27.2559 13.917 27.2559 15.7504Z" fill="white"/>
<path d="M38.558 10.524C38.3473 10.503 38.1365 10.4819 37.9047 10.4819C37.0196 10.4819 35.5866 10.7348 34.9543 12.1046V10.5662H32.2358V20.9346H35.0386V16.193C35.0386 13.9591 36.282 13.2637 37.715 13.2637C37.9679 13.2637 38.2419 13.2847 38.558 13.348V10.524Z" fill="white"/>
<path d="M42.4709 14.5703C42.5341 13.6219 43.3349 12.5261 44.789 12.5261C46.3906 12.5261 47.065 13.5376 47.1072 14.5703H42.4709ZM47.3811 17.2677C47.0439 18.195 46.3274 18.8483 45.0208 18.8483C43.6299 18.8483 42.4709 17.8578 42.4076 16.488H49.8257C49.8257 16.4459 49.8679 16.0244 49.8679 15.624C49.8679 12.2943 47.9501 10.2501 44.7469 10.2501C42.0915 10.2501 39.6469 12.3996 39.6469 15.7083C39.6469 19.2066 42.1548 21.2507 44.9998 21.2507C47.5497 21.2507 49.1935 19.7545 49.7203 17.9632L47.3811 17.2677Z" fill="white"/>
<path d="M54.8779 24.9387V19.9231C55.3837 20.6185 56.4374 21.1875 57.8704 21.1875C60.7997 21.1875 62.7596 18.8694 62.7596 15.7293C62.7596 12.6525 61.0104 10.3344 57.9758 10.3344C56.4163 10.3344 55.2572 11.0298 54.7936 11.8306V10.5662H52.075V24.9387H54.8779ZM59.9989 15.7504C59.9989 17.6049 58.8609 18.6797 57.4278 18.6797C55.9948 18.6797 54.8357 17.5839 54.8357 15.7504C54.8357 13.917 55.9948 12.8422 57.4278 12.8422C58.8609 12.8422 59.9989 13.917 59.9989 15.7504Z" fill="white"/>
<path d="M67.7816 20.9346V5.677H64.9788V20.9346H67.7816Z" fill="white"/>
<path d="M70.0884 18.1107C70.0884 19.7334 71.4372 21.2297 73.6499 21.2297C75.1883 21.2297 76.1788 20.5131 76.7057 19.6913C76.7057 20.0917 76.7478 20.6607 76.8111 20.9346H79.3821C79.3189 20.5764 79.2556 19.8388 79.2556 19.2908V14.1909C79.2556 12.1046 78.0333 10.2501 74.7458 10.2501C71.964 10.2501 70.4678 12.0414 70.2992 13.6641L72.7859 14.1909C72.8702 13.2847 73.5446 12.505 74.7669 12.505C75.947 12.505 76.516 13.1161 76.516 13.8537C76.516 14.212 76.3263 14.507 75.7363 14.5913L73.1863 14.9707C71.4582 15.2236 70.0884 16.2562 70.0884 18.1107ZM74.24 19.1433C73.3338 19.1433 72.8913 18.5533 72.8913 17.9421C72.8913 17.1413 73.4603 16.7409 74.1768 16.6355L76.516 16.2773V16.7409C76.516 18.5743 75.4202 19.1433 74.24 19.1433Z" fill="white"/>
<path d="M86.6971 12.8422C88.088 12.8422 88.7413 13.7273 88.9942 14.5913L91.502 13.7484C91.0594 11.9992 89.4578 10.2501 86.6339 10.2501C83.6203 10.2501 81.26 12.5471 81.26 15.7504C81.26 18.9326 83.6624 21.2507 86.7182 21.2507C89.4789 21.2507 91.1016 19.4805 91.5652 17.7524L89.0995 16.9306C88.8677 17.7314 88.1512 18.6797 86.7182 18.6797C85.2851 18.6797 84.0628 17.626 84.0628 15.7504C84.0628 13.8748 85.2641 12.8422 86.6971 12.8422Z" fill="white"/>
<path d="M95.5676 14.5703C95.6309 13.6219 96.4317 12.5261 97.8858 12.5261C99.4874 12.5261 100.162 13.5376 100.204 14.5703H95.5676ZM100.478 17.2677C100.141 18.195 99.4242 18.8483 98.1176 18.8483C96.7267 18.8483 95.5676 17.8578 95.5044 16.488H102.922C102.922 16.4459 102.965 16.0244 102.965 15.624C102.965 12.2943 101.047 10.2501 97.8436 10.2501C95.1883 10.2501 92.7437 12.3996 92.7437 15.7083C92.7437 19.2066 95.2515 21.2507 98.0965 21.2507C100.646 21.2507 102.29 19.7545 102.817 17.9632L100.478 17.2677Z" fill="white"/>
<path d="M115.056 5.677H112.295V11.5988C112 11.0509 111.157 10.3133 109.366 10.3133C106.436 10.3133 104.392 12.6947 104.392 15.7293C104.392 18.8694 106.499 21.1875 109.45 21.1875C110.841 21.1875 111.894 20.5553 112.358 19.7334C112.358 20.2181 112.421 20.7239 112.463 20.9346H115.14C115.098 20.5131 115.056 19.7545 115.056 19.059V5.677ZM107.216 15.7293C107.216 13.8748 108.354 12.8211 109.787 12.8211C111.22 12.8211 112.337 13.8537 112.337 15.7083C112.337 17.5839 111.22 18.6797 109.787 18.6797C108.312 18.6797 107.216 17.5839 107.216 15.7293Z" fill="white"/>
<path d="M12.0629 11.4772C12.0629 10.0936 10.8578 8.97192 9.37128 8.97192C7.88475 8.97192 6.67969 10.0936 6.67969 11.4772V18.4293C6.67969 19.8129 7.88475 20.9345 9.37128 20.9345C10.8578 20.9345 12.0629 19.8129 12.0629 18.4293V11.4772Z" fill="white"/>
<path d="M9.36719 3.76733C10.1633 3.76733 10.8085 4.41266 10.8086 5.20874C10.8086 6.00491 10.1634 6.65015 9.36719 6.65015C8.5711 6.65005 7.92578 6.00485 7.92578 5.20874C7.92588 4.41272 8.57116 3.76743 9.36719 3.76733Z" stroke="white" stroke-width="2.5"/>
<path d="M2.69141 14.3286C3.57336 14.3286 4.13258 14.9733 4.13281 15.5835V22.5356C4.13281 23.146 3.57354 23.7915 2.69141 23.7915C1.80938 23.7914 1.25 23.1459 1.25 22.5356V15.5835C1.25023 14.9733 1.80956 14.3287 2.69141 14.3286Z" stroke="white" stroke-width="2.5"/>
<path d="M2.69159 12.0077C4.17811 12.0077 5.38318 10.8026 5.38318 9.3161C5.38318 7.82958 4.17811 6.62451 2.69159 6.62451C1.20507 6.62451 0 7.82958 0 9.3161C0 10.8026 1.20507 12.0077 2.69159 12.0077Z" fill="white"/>
</svg>
